<?xml version="1.0" encoding="UTF-8"?>
<svg xmlns="http://www.w3.org/2000/svg" width="768" height="250" viewBox="0 0 768 250" fill="none">
  <path d="M249.327 122.027C249.327 125.749 248.309 129.035 246.272 131.885C244.314 134.736 241.415 136.992 237.577 138.655C233.816 140.239 229.155 141.031 223.593 141.031C218.501 141.031 213.605 140.239 208.905 138.655C204.283 137.072 200.64 135.052 197.976 132.598L201.502 125.946C203.93 128.243 207.142 130.143 211.137 131.648C215.211 133.073 219.441 133.785 223.828 133.785C229.939 133.785 234.286 132.717 236.872 130.579C239.535 128.362 240.867 125.749 240.867 122.74C240.867 120.206 240.123 118.226 238.634 116.801C237.146 115.296 235.187 114.109 232.759 113.238C230.33 112.288 227.667 111.496 224.768 110.862C221.87 110.229 218.971 109.516 216.073 108.724C213.174 107.933 210.471 106.864 207.965 105.518C205.536 104.171 203.578 102.39 202.089 100.173C200.679 97.9556 199.974 95.0259 199.974 91.3835C199.974 87.7411 200.953 84.4947 202.912 81.6441C204.87 78.7936 207.73 76.5369 211.49 74.8741C215.25 73.2113 219.872 72.3798 225.356 72.3798C229.273 72.3798 233.111 72.8945 236.872 73.9239C240.71 74.8741 244 76.3389 246.742 78.3185L243.687 85.2073C240.867 83.2278 237.851 81.8421 234.639 81.0503C231.427 80.1793 228.254 79.7438 225.121 79.7438C219.324 79.7438 215.054 80.8523 212.312 83.0694C209.649 85.2073 208.317 87.8599 208.317 91.0272C208.317 93.561 209.061 95.5802 210.55 97.0846C212.038 98.5099 213.997 99.6976 216.425 100.648C218.854 101.519 221.517 102.271 224.416 102.905C227.393 103.538 230.33 104.251 233.229 105.042C236.127 105.834 238.791 106.903 241.219 108.249C243.648 109.516 245.606 111.258 247.095 113.475C248.583 115.692 249.327 118.543 249.327 122.027Z" fill="#2F4A43"></path>
  <path d="M325.054 141.031C318.317 141.031 312.246 139.566 306.84 136.636C301.435 133.627 297.165 129.549 294.032 124.402C290.977 119.176 289.449 113.277 289.449 106.705C289.449 100.133 290.977 94.2737 294.032 89.1268C297.165 83.98 301.435 79.9021 306.84 76.8932C312.246 73.8843 318.317 72.3798 325.054 72.3798C331.87 72.3798 337.941 73.8843 343.268 76.8932C348.673 79.9021 352.904 83.98 355.959 89.1268C359.092 94.2737 360.659 100.133 360.659 106.705C360.659 113.277 359.092 119.176 355.959 124.402C352.904 129.549 348.673 133.627 343.268 136.636C337.941 139.566 331.87 141.031 325.054 141.031ZM325.054 133.667C330.303 133.667 334.964 132.519 339.038 130.222C343.111 127.847 346.323 124.64 348.673 120.602C351.023 116.484 352.198 111.852 352.198 106.705C352.198 101.558 350.984 96.9659 348.556 92.9276C346.206 88.8893 342.994 85.722 338.92 83.4257C334.925 81.0503 330.303 79.8625 325.054 79.8625C319.884 79.8625 315.223 81.0503 311.071 83.4257C306.997 85.722 303.785 88.8893 301.435 92.9276C299.085 96.9659 297.91 101.558 297.91 106.705C297.91 111.852 299.085 116.484 301.435 120.602C303.785 124.64 306.997 127.847 311.071 130.222C315.223 132.519 319.884 133.667 325.054 133.667Z" fill="#2F4A43"></path>
  <path d="M435.529 141.031C429.654 141.031 424.601 139.922 420.371 137.705C416.219 135.409 413.007 132.083 410.735 127.728C408.463 123.373 407.327 118.068 407.327 111.812V73.2113H415.788V111.575C415.788 118.939 417.511 124.482 420.958 128.203C424.405 131.846 429.262 133.667 435.529 133.667C441.875 133.667 446.771 131.846 450.218 128.203C453.665 124.482 455.388 118.939 455.388 111.575V73.2113H463.614V111.812C463.614 118.068 462.478 123.373 460.206 127.728C458.012 132.083 454.8 135.409 450.57 137.705C446.418 139.922 441.405 141.031 435.529 141.031Z" fill="#2F4A43"></path>
  <path d="M516.934 140.318V73.2113H542.668C548.465 73.2113 553.401 74.1219 557.474 75.943C561.626 77.7642 564.838 80.4168 567.11 83.9008C569.382 87.3056 570.518 91.4627 570.518 96.372C570.518 101.123 569.382 105.24 567.11 108.724C564.838 112.208 561.626 114.861 557.474 116.682C553.401 118.503 548.465 119.414 542.668 119.414H521.634L525.394 115.613V140.318H516.934ZM562.409 140.318L545.018 115.97H554.301L571.575 140.318H562.409ZM525.394 116.445L522.104 112.406H542.316C548.739 112.406 553.635 111.021 557.004 108.249C560.373 105.399 562.057 101.44 562.057 96.372C562.057 91.2252 560.373 87.2661 557.004 84.4947C553.635 81.7233 548.739 80.3376 542.316 80.3376H522.104L525.394 76.2994V116.445Z" fill="#2F4A43"></path>
  <path d="M648.428 141.031C641.691 141.031 635.62 139.566 630.214 136.636C624.887 133.627 620.657 129.549 617.523 124.402C614.468 119.176 612.941 113.277 612.941 106.705C612.941 100.133 614.468 94.2737 617.523 89.1268C620.657 83.98 624.887 79.9021 630.214 76.8932C635.62 73.8843 641.691 72.3798 648.428 72.3798C653.755 72.3798 658.534 73.2113 662.764 74.8741C666.994 76.5369 670.637 79.0311 673.692 82.3568L668.287 87.9391C665.623 85.1677 662.647 83.1486 659.356 81.8817C656.066 80.5356 652.502 79.8625 648.663 79.8625C643.493 79.8625 638.832 81.0503 634.68 83.4257C630.528 85.722 627.277 88.8893 624.927 92.9276C622.576 96.9659 621.401 101.558 621.401 106.705C621.401 111.852 622.576 116.484 624.927 120.602C627.277 124.64 630.528 127.807 634.68 130.104C638.832 132.4 643.493 133.548 648.663 133.548C652.502 133.548 656.066 132.914 659.356 131.648C662.647 130.381 665.623 128.322 668.287 125.471L673.692 131.054C670.637 134.379 666.955 136.874 662.647 138.536C658.416 140.199 653.677 141.031 648.428 141.031Z" fill="#2F4A43"></path>
  <path d="M726.755 102.786H762.477V109.793H726.755V102.786ZM728.165 133.192H768V140.318H719.704V73.2113H766.59V80.3376H728.165V133.192Z" fill="#2F4A43"></path>
  <path d="M0 52.1546L82.0475 0V71.8194L0 123.974V52.1546Z" fill="#2F4A43"></path>
  <path d="M0 130.13L60.51 91.6554V158.345L0 130.13Z" fill="#2F4A43"></path>
  <path d="M126.148 197.845L44.1007 250V178.181L126.148 126.026V197.845Z" fill="#2F4A43"></path>
  <path d="M126.148 119.87L65.6382 158.345V91.6552L126.148 119.87Z" fill="#2F4A43"></path>
</svg>
